<svg id="Слой_1" data-name="Слой 1"
    xmlns="http://www.w3.org/2000/svg"
    xmlns:xlink="http://www.w3.org/1999/xlink" viewBox="0 0 415.94 155">
    <defs>
        <linearGradient id="Безымянный_градиент_2" x1="344.7" y1="599.24" x2="349.16" y2="409.19" gradientTransform="matrix(1, 0, 0, -1, 0, 1002)" gradientUnits="userSpaceOnUse">
            <stop offset="0" stop-color="#bbd141"/>
            <stop offset="1" stop-color="#2dac54"/>
        </linearGradient>
    </defs>
    <path d="M388.27,476.3l15.21-5.52a2.5,2.5,0,0,0,1.35-1.21,2.63,2.63,0,0,0,.2-1.83l-.11-.46a4.34,4.34,0,0,0-.3-1.12,60.55,60.55,0,0,0-22-32.23,57.24,57.24,0,0,0-72.23,2.93,60.86,60.86,0,0,0-19.51,33.92.21.21,0,0,0,0,.11l-.25.39-.2.49a41.3,41.3,0,0,0-.82,7.27,39.84,39.84,0,0,0,2.72,15.29,39,39,0,0,0,8.32,13,49.14,49.14,0,0,0,5.53,16.28l-15.64,5.67a2.48,2.48,0,0,0-1.36,1.19,2.58,2.58,0,0,0-.21,1.83l.12.46a4.45,4.45,0,0,0,.29,1.14,60.55,60.55,0,0,0,22,32.22,57.27,57.27,0,0,0,72.22-3,60.85,60.85,0,0,0,19.52-33.91v-.09l.23-.39.11-.46A40.3,40.3,0,0,0,401.66,506a38.6,38.6,0,0,0-8.08-12.83A49.28,49.28,0,0,0,388.27,476.3Zm-1.47,57.92a25.83,25.83,0,0,1-.57,5v.35a40.24,40.24,0,0,1-25.8,6.77A47.23,47.23,0,0,0,386,527.1,26.65,26.65,0,0,1,386.8,534.22ZM333.2,429.81a52.4,52.4,0,0,1,40.6,4.45,55.24,55.24,0,0,1,25.9,32.56l-26.52,9.57a48.88,48.88,0,0,0-17.53-20.25,46.72,46.72,0,0,0-25.27-7.59A45.37,45.37,0,0,0,304,457a3.3,3.3,0,0,0-.84.42,45.11,45.11,0,0,0-4.25,3.57,55.2,55.2,0,0,1,13.75-19.58A52.89,52.89,0,0,1,333.2,429.81ZM308,472.8a26.69,26.69,0,0,1-.8-6.95,24.66,24.66,0,0,1,.63-5.21v-.15a40,40,0,0,1,24.48-6.8A47.5,47.5,0,0,0,308,472.8Zm-13.46,6.35a34.08,34.08,0,0,1,.55-5.52,44.46,44.46,0,0,1,7.24-8.85v.92a32.3,32.3,0,0,0,2.36,12.75,49.54,49.54,0,0,0-5,19.65A34.26,34.26,0,0,1,294.52,479.15Zm10.4,20.61a44.31,44.31,0,0,1,11.62-30A41.69,41.69,0,0,1,345,456.32a42.85,42.85,0,0,1,14.75,9.48,44.59,44.59,0,0,1,9.91,14.73,2.58,2.58,0,0,0,.9,1.11,2.42,2.42,0,0,0,1.35.42,2.89,2.89,0,0,0,.82-.15L383.58,478a44.69,44.69,0,0,1,.25,43.16,42.78,42.78,0,0,1-15.11,16,41.14,41.14,0,0,1-20.81,6.13,42.7,42.7,0,0,1-14.1-9.43,44.25,44.25,0,0,1-9.53-14.29,2.54,2.54,0,0,0-1.27-1.31,2.36,2.36,0,0,0-1.79-.06L310.84,522A44.2,44.2,0,0,1,304.92,499.76Zm55.81,70.5a52.29,52.29,0,0,1-40.57-4.46,55.09,55.09,0,0,1-25.87-32.56l26.52-9.57a48.19,48.19,0,0,0,23.3,23.48,45.53,45.53,0,0,0,46.15-4.27,2.91,2.91,0,0,0,.88-.44,49.44,49.44,0,0,0,4-3.38,55.27,55.27,0,0,1-13.81,19.58A53.22,53.22,0,0,1,360.73,570.26Zm38.74-49.35a36.36,36.36,0,0,1-.56,5.52,42.93,42.93,0,0,1-7.22,8.87v-.92a32.17,32.17,0,0,0-2.35-12.69,50.12,50.12,0,0,0,5-19.63A34.57,34.57,0,0,1,399.47,520.91Z" transform="translate(-288.86 -422.5)" style="fill:url(#Безымянный_градиент_2)"/>
    <path d="M435.41,536.11l2.82-12.84a92.57,92.57,0,0,0,21.69,2.44c9.37,0,12.32-1.54,12.32-6.8,0-4.75-2.82-5.65-9.37-6.93l-7.31-1.41c-13.35-2.44-20.15-6.42-20.15-20.54s7.44-20.4,28.88-20.4c9.88,0,19.37,1.54,24.64,3.2l-2.83,12.71a103.16,103.16,0,0,0-19.63-1.8c-9.37,0-12.2,1.16-12.2,6,0,5.14,3.34,5.91,10.14,7.19l7.45,1.41c13.73,2.57,19.25,6.81,19.25,20.15,0,15.79-8.22,21.18-28.49,21.18C452.09,539.7,441.7,538.29,435.41,536.11Z" transform="translate(-288.86 -422.5)"/>
    <path d="M500.35,536.11l2.82-12.84a92.63,92.63,0,0,0,21.69,2.44c9.37,0,12.33-1.54,12.33-6.8,0-4.75-2.83-5.65-9.37-6.93l-7.32-1.41c-13.35-2.44-20.15-6.42-20.15-20.54s7.44-20.4,28.88-20.4c9.88,0,19.38,1.54,24.64,3.2l-2.82,12.71a103.36,103.36,0,0,0-19.64-1.8c-9.37,0-12.19,1.16-12.19,6,0,5.14,3.33,5.91,10.14,7.19l7.44,1.41c13.73,2.57,19.25,6.81,19.25,20.15,0,15.79-8.21,21.18-28.49,21.18C517,539.7,506.64,538.29,500.35,536.11Z" transform="translate(-288.86 -422.5)"/>
    <path d="M587.5,531.23l-.52.13-1,7.06H569.14V444.6h19.51v22.71c0,3.21-.25,6.55-.51,9.37l.51.13c4.75-4.62,11.3-7.18,19.89-7.18,19.9,0,30.42,11.93,30.42,34.52v1c0,22.58-10.52,34.52-30.42,34.52C599.3,539.7,592.25,536.75,587.5,531.23Zm26.31-9c4-3.21,5.26-9,5.26-16.56v-2.05c0-7.7-1.28-13.35-5.26-16.56-2.31-1.93-5.39-2.82-9.89-2.82s-7.57.89-9.88,2.82c-4,3.21-5.39,8.86-5.39,16.56v2.05c0,7.57,1.41,13.35,5.39,16.56,2.31,1.92,5.39,2.82,9.88,2.82S611.5,524.17,613.81,522.25Z" transform="translate(-288.86 -422.5)"/>
    <path d="M649.1,536.11l2.83-12.84a92.51,92.51,0,0,0,21.69,2.44c9.37,0,12.32-1.54,12.32-6.8,0-4.75-2.83-5.65-9.37-6.93l-7.32-1.41c-13.34-2.44-20.15-6.42-20.15-20.54s7.45-20.4,28.88-20.4c9.88,0,19.38,1.54,24.64,3.2l-2.82,12.71a103.28,103.28,0,0,0-19.64-1.8c-9.37,0-12.19,1.16-12.19,6,0,5.14,3.34,5.91,10.14,7.19l7.44,1.41c13.73,2.57,19.25,6.81,19.25,20.15,0,15.79-8.21,21.18-28.49,21.18C665.79,539.7,655.39,538.29,649.1,536.11Z" transform="translate(-288.86 -422.5)"/>
</svg>